PathFileType	4	(X/Y/Z)	E:\Studenten\Marcel_BSc\Ayumi_25_09_2024\25-09-2024\sumo_dl_80kg01.trc
DataRate	CameraRate	NumFrames	NumMarkers	Units	OrigDataRate	OrigDataStartFrame	OrigNumFrames
200.0	200.0	6	52	mm	200.0	1392	2782	
Frame#	Time	RSACR			LSACR			USACR			LBAR			RBAR			RHEE			RMT1			RMT5			RMT2			LHEE			LMT1			LMT5			LMT2			LMMAL			LLMAL			LTIB4			LTIB2			LTIB3			LTIB1			RMMAL			RLMAL			RTIB1			RTIB2			RTIB3			RTHI1			RTHI4			RTHI3			RTHI2			LTHI1			LTHI4			LTHI3			LTHI2			FHD			LBHD			RBHD			C7			T10			CLAV			LSHO			RSHO			LRAD			LUL			LRFIN			RRAD			RUL			RUFIN			LDUPA			LMUPA			LUUPA			RDUPA			RUUPA			RMUPA			
		X1	Y1	Z1	X2	Y2	Z2	X3	Y3	Z3	X4	Y4	Z4	X5	Y5	Z5	X6	Y6	Z6	X7	Y7	Z7	X8	Y8	Z8	X9	Y9	Z9	X10	Y10	Z10	X11	Y11	Z11	X12	Y12	Z12	X13	Y13	Z13	X14	Y14	Z14	X15	Y15	Z15	X16	Y16	Z16	X17	Y17	Z17	X18	Y18	Z18	X19	Y19	Z19	X20	Y20	Z20	X21	Y21	Z21	X22	Y22	Z22	X23	Y23	Z23	X24	Y24	Z24	X25	Y25	Z25	X26	Y26	Z26	X27	Y27	Z27	X28	Y28	Z28	X29	Y29	Z29	X30	Y30	Z30	X31	Y31	Z31	X32	Y32	Z32	X33	Y33	Z33	X34	Y34	Z34	X35	Y35	Z35	X36	Y36	Z36	X37	Y37	Z37	X38	Y38	Z38	X39	Y39	Z39	X40	Y40	Z40	X41	Y41	Z41	X42	Y42	Z42	X43	Y43	Z43	X44	Y44	Z44	X45	Y45	Z45	X46	Y46	Z46	X47	Y47	Z47	X48	Y48	Z48	X49	Y49	Z49	X50	Y50	Z50	X51	Y51	Z51	X52	Y52	Z52	
1392	6.955	444.79672	753.83392	-975.39801	445.44028	753.48425	-916.37067	428.97348	761.50354	-944.78137	226.30325	309.63818	188.46729	128.9904	291.07425	-2030.0271	272.91696	35.755154	-1355.8019	118.068	43.37772	-1475.9537	187.87672	31.120636	-1518.2056	149.73375	42.751495	-1502.5364	308.04181	44.093826	-488.28152	145.56279	49.860741	-384.40494				172.35397	45.861576	-355.43124	247.42972	73.176262	-496.88364	290.92743	71.99221	-428.121	302.8092	209.4838	-468.39514	286.72354	272.77881	-465.37527	323.20779	263.73227	-499.94302	316.95627	304.74368	-502.36923	220.92381	66.370316	-1356.5448	265.30402	71.338547	-1417.6061	240.41226	316.99417	-1402.0243	281.75552	305.2319	-1374.7323	255.40933	253.09225	-1403.6185	434.13959	646.50549	-1155.0585	330.67004	577.8985	-1249.4718	362.84369	538.27136	-1252.5703	386.52866	587.86389	-1215.5879	458.96295	633.86041	-752.81311	399.69794	538.9165	-655.4248	361.54111	573.45258	-648.65289	405.90668	593.45831	-692.14502	-99.969521	1127.8922	-841.74231	12.155274	1142.9202	-848.53802	30.139069	1126.1729	-971.74951	74.078087	992.52057	-909.2569	386.241	791.68689	-938.03229	34.660568	859.49115	-918.16803	60.566059	909.28778	-738.88361	32.812317	895.64508	-1065.2185	145.17682	380.69772	-702.82471	144.77261	380.57913	-662.06885	151.25381	294.55008	-720.63062	128.68083	374.97287	-1146.2606	121.56911	374.55542	-1194.1652	129.91031	288.89783	-1134.2932	93.783539	683.94897	-730.00323	113.03344	667.65436	-687.01685	90.933182	740.95764	-707.21515	80.826622	645.44781	-1082.6952	67.783195	718.61401	-1111.9889	81.511391	660.36761	-1130.4114
1393	6.96	444.75427	754.51685	-975.31799	445.36761	754.17242	-916.17249	428.95004	762.17572	-944.78632	226.50917	310.71695	188.33646	128.90506	292.30502	-2030.1476	272.93436	35.754375	-1355.8948	118.13235	43.412495	-1476.079	187.89659	31.086876	-1518.3024	149.72926	42.779629	-1502.6329	308.03537	44.08194	-488.27612	145.57361	49.861664	-384.36301				172.36357	45.864189	-355.40054	247.54652	73.149673	-496.77682	290.90988	71.969238	-428.12512	302.88168	209.42494	-468.41788	287.01263	272.79431	-465.30646	323.65643	263.62381	-499.73453	317.17258	304.67471	-502.31827	220.99214	66.416328	-1356.6454	265.41129	71.293167	-1417.7211	241.6584	316.76187	-1402.1752	282.2005	305.25168	-1374.8209	255.87791	253.19362	-1403.7908	434.28101	647.03223	-1154.9146	331.02734	578.29852	-1249.5007	363.25732	538.71466	-1252.5421	386.78149	588.31537	-1215.5583	458.81729	634.26276	-752.87256	399.86395	539.30078	-655.45959	361.6673	573.74823	-648.59888	405.90317	593.74609	-692.06775	-99.631927	1129.1226	-841.86432	12.495607	1144.1608	-848.68921	30.40979	1127.4218	-971.81799	74.472099	993.70087	-909.33344	386.34369	792.43591	-937.97968	34.980831	860.73572	-918.29907	60.656944	910.44916	-738.98694	33.215992	896.91888	-1065.3904	145.2684	381.83368	-702.92334	144.90547	381.70303	-662.17584	151.32349	295.68085	-720.74249	128.76323	376.19205	-1146.3806	121.69672	375.77493	-1194.3037	129.87924	290.10162	-1134.41	93.797943	685.07159	-730.09583	113.03062	668.79883	-687.07629	90.959969	742.04938	-707.23346	81.070862	646.67145	-1082.9023	68.118614	719.84174	-1112.1813	82.028412	661.77319	-1130.7186
1394	6.965	444.73761	755.16125	-975.23541	445.30005	754.75842	-916.17365	428.96432	762.84894	-944.69788	226.71701	311.76654	188.20695	128.84477	293.56097	-2030.2677	272.9498	35.75478	-1355.9807	118.17629	43.423729	-1476.1869	187.95268	31.063982	-1518.3926	149.75539	42.78688	-1502.7368	308.02573	44.072117	-488.26953	145.57701	49.861736	-384.32584				172.37949	45.871265	-355.36099	247.3972	73.24231	-496.88712	290.92209	71.942131	-428.14514	303.22021	209.47636	-468.19345	287.28802	272.80844	-465.22043	323.76495	263.5531	-499.73282	317.38428	304.61682	-502.27899	221.05466	66.463097	-1356.7454	265.46799	71.254524	-1417.8099	242.10861	316.78583	-1402.2983	282.63174	305.24026	-1374.8958	255.83932	253.19722	-1404.1168	434.37207	647.53027	-1154.7738	331.35214	578.66553	-1249.5469	363.67386	539.13184	-1252.531	387.00171	588.85089	-1215.55	458.72833	634.63135	-752.88818	400.02631	539.60669	-655.46722	361.76889	574.01178	-648.53986	405.96326	594.0636	-692.01953	-99.289757	1130.3474	-841.98511	12.822381	1145.4182	-848.85413	30.753769	1128.7238	-972.12225	74.89975	994.85211	-909.40302	386.43033	793.15405	-937.93158	35.220398	861.97253	-918.44458	60.786606	911.58197	-739.11237	33.621681	898.20618	-1065.5585	145.33035	382.95157	-703.03284	144.97469	382.82205	-662.27856	150.41891	297.35507	-721.45636	128.75735	377.4371	-1146.4688	121.83105	377.01227	-1194.4407	129.86601	291.32397	-1134.5415	93.841644	686.26239	-730.19635	113.04527	669.95886	-687.12488	91.003357	743.22083	-707.38141	81.381607	647.88708	-1083.0592	68.41349	721.06042	-1112.3723	82.136993	662.85004	-1130.8079
1395	6.97	444.77582	755.75397	-975.13104	445.35129	755.37964	-915.99811	428.99857	763.49573	-944.6167	226.9386	312.83511	188.064	128.74818	294.81406	-2030.418	272.95728	35.759972	-1356.0367	118.21986	43.428555	-1476.3009	188.00537	31.031357	-1518.4875	149.7674	42.790291	-1502.8315	308.0239	44.057552	-488.25964	145.58052	49.868114	-384.29379				172.38167	45.876389	-355.3309	247.41745	73.237801	-496.85168	290.95654	71.971245	-428.11343	303.18799	209.35434	-468.33188	287.73688	272.9444	-464.97699	323.8793	263.46689	-499.76224	317.58987	304.56277	-502.25879	221.10458	66.484222	-1356.8322	265.56058	71.228378	-1417.9073	241.78625	317.05841	-1402.4065	283.01547	305.23087	-1374.8962	256.18073	253.12299	-1404.0746	434.44235	647.9837	-1154.6851	331.63528	578.99341	-1249.5787	364.02356	539.51642	-1252.5099	387.2326	589.25409	-1215.4958	458.6254	634.97284	-752.87463	400.12509	539.86768	-655.45856	361.87747	574.24884	-648.44073	406.01819	594.38318	-691.92792	-98.949875	1131.5659	-842.10461	13.147388	1146.7273	-849.02032	31.077148	1130.0223	-972.29578	75.236473	995.9826	-909.52142	386.53348	793.8573	-937.83923	35.397419	863.20685	-918.57971	60.940781	912.76385	-739.24817	34.005486	899.51685	-1065.7139	145.40572	384.10513	-703.13885	145.07576	383.97812	-662.39014	151.4478	297.97913	-720.96332	128.79881	378.66116	-1146.5878	121.93961	378.23776	-1194.5585	129.86177	292.5611	-1134.6593	93.905121	687.43152	-730.30475	113.04008	671.14349	-687.26331	91.051674	744.42236	-707.51801	81.585846	649.1095	-1083.24	68.650673	722.31848	-1112.5188	82.363983	664.09833	-1130.9507
1396	6.975	444.87573	756.32721	-975.04108	445.43088	755.94159	-915.89453	429.08948	764.08307	-944.51489	227.18419	313.90594	187.96507	128.68605	296.08649	-2030.5186	272.96249	35.746834	-1356.0951	118.25122	43.45166	-1476.4043	188.02501	31.032768	-1518.5647	149.81885	42.773815	-1502.9354	308.01367	44.056351	-488.26132	145.57455	49.867233	-384.25122				172.39458	45.876026	-355.3002	247.40053	73.250916	-496.84848	290.95044	71.955086	-428.11804	303.45288	209.37985	-468.1882	287.94623	272.96143	-465.04504	323.87619	263.45419	-499.85825	317.76886	304.5228	-502.26837	221.13861	66.50721	-1356.9152	265.6268	71.198196	-1418	242.22704	317.01947	-1402.4578	283.10779	304.98486	-1374.7643	256.44971	253.04541	-1404.0439	434.51373	648.39673	-1154.6205	331.86713	579.29175	-1249.6361	364.23788	539.79187	-1252.4429	387.46548	589.50366	-1215.3861	458.56732	635.28595	-752.81598	400.19843	540.03967	-655.44495	361.96564	574.44183	-648.31891	406.04688	594.64746	-691.8277	-98.621048	1132.8239	-842.25299	13.471901	1148.0338	-849.16125	31.384617	1131.3464	-972.47363	75.67762	997.18225	-909.58618	386.70572	794.55457	-937.76318	35.649235	864.45245	-918.73303	61.106522	913.97455	-739.37177	34.373074	900.82672	-1065.8755	145.50435	385.28806	-703.24017	145.2263	385.1293	-662.48438	151.47498	299.15045	-721.09924	128.90106	379.86578	-1146.7061	122.06868	379.49817	-1194.6891	129.83516	293.8298	-1134.7784	94.016731	688.59259	-730.40192	113.08845	672.31622	-687.32843	90.92128	745.54663	-707.58759	81.45993	650.31213	-1083.1709	68.9058	723.58203	-1112.6548	82.579506	665.35077	-1131.1027
1397	6.98	445.00467	756.85345	-974.95142	445.42496	756.31763	-915.9823	429.25064	764.61359	-944.42188	227.31755	314.97571	187.97874	128.64175	297.36548	-2030.6429	272.95782	35.733093	-1356.1302	118.28375	43.452827	-1476.5074	188.0451	31.044806	-1518.6271	149.84308	42.783478	-1503.0211	308.01202	44.054401	-488.24359	145.58768	49.861229	-384.22745				172.40414	45.883873	-355.27252	247.5513	73.165863	-496.69354	290.9628	71.953911	-428.12665	303.55942	209.37416	-468.18796	288.03302	272.91437	-464.92706	324.13818	263.36591	-499.77042	317.93747	304.49588	-502.26181	221.15347	66.516273	-1356.9739	265.66498	71.18074	-1418.0536	242.57474	316.97055	-1402.4648	283.66739	305.06793	-1374.8146	256.80783	252.99242	-1404.0728	434.54385	648.78687	-1154.5719	332.04419	579.51013	-1249.6395	364.44031	540.0329	-1252.3959	387.52219	589.83087	-1215.3994	458.55002	635.56848	-752.71082	400.28714	540.23022	-655.38049	362.05682	574.6142	-648.16663	406.06625	594.88129	-691.71381	-98.306091	1134.0988	-842.39246	13.778749	1149.3712	-849.29932	31.685575	1132.6396	-972.4397	76.168976	998.40686	-909.72314	386.83859	795.21747	-937.68817	35.897991	865.73169	-918.86621	61.357292	915.18512	-739.49109	34.731918	902.15607	-1066.0106	145.58801	386.45337	-703.32294	145.33896	386.30106	-662.57196	150.58522	300.85028	-721.81165	129.04919	381.08276	-1146.829	122.19655	380.76596	-1194.8245	129.84344	295.10321	-1134.8953	94.133522	689.80121	-730.5011	113.20271	673.5014	-687.40173	91.206146	746.79907	-707.69965	81.964401	651.59229	-1083.5018	69.131279	724.83588	-1112.7726	82.77816	666.61932	-1131.1904
